<mxfile host="app.diagrams.net" modified="2023-11-06T04:47:23.960Z" agent="Mozilla/5.0 (Windows NT 10.0; Win64; x64) AppleWebKit/537.36 (KHTML, like Gecko) Chrome/116.0.0.0 Safari/537.36 OPR/102.0.0.0" etag="GmH7eGITMddZELUmgfdN" version="22.0.8" type="github">
  <diagram id="R2lEEEUBdFMjLlhIrx00" name="Page-1">
    <mxGraphModel dx="2506" dy="1020" grid="0" gridSize="10" guides="1" tooltips="1" connect="1" arrows="1" fold="1" page="0" pageScale="1" pageWidth="850" pageHeight="1100" math="0" shadow="0" extFonts="Permanent Marker^https://fonts.googleapis.com/css?family=Permanent+Marker">
      <root>
        <mxCell id="0" />
        <mxCell id="1" parent="0" />
        <mxCell id="ZwdzB-IZGjin4EgNwJ6O-11" value="" style="edgeStyle=orthogonalEdgeStyle;rounded=0;orthogonalLoop=1;jettySize=auto;html=1;endArrow=none;endFill=0;" edge="1" parent="1" source="ZwdzB-IZGjin4EgNwJ6O-1" target="ZwdzB-IZGjin4EgNwJ6O-9">
          <mxGeometry relative="1" as="geometry" />
        </mxCell>
        <mxCell id="ZwdzB-IZGjin4EgNwJ6O-51" style="edgeStyle=orthogonalEdgeStyle;curved=1;rounded=0;orthogonalLoop=1;jettySize=auto;html=1;exitX=0;exitY=0.5;exitDx=0;exitDy=0;endArrow=none;endFill=0;" edge="1" parent="1" source="ZwdzB-IZGjin4EgNwJ6O-1" target="ZwdzB-IZGjin4EgNwJ6O-47">
          <mxGeometry relative="1" as="geometry" />
        </mxCell>
        <mxCell id="ZwdzB-IZGjin4EgNwJ6O-53" style="edgeStyle=orthogonalEdgeStyle;curved=1;rounded=0;orthogonalLoop=1;jettySize=auto;html=1;exitX=0.75;exitY=0;exitDx=0;exitDy=0;endArrow=none;endFill=0;" edge="1" parent="1" source="ZwdzB-IZGjin4EgNwJ6O-1" target="ZwdzB-IZGjin4EgNwJ6O-49">
          <mxGeometry relative="1" as="geometry" />
        </mxCell>
        <mxCell id="ZwdzB-IZGjin4EgNwJ6O-54" style="edgeStyle=orthogonalEdgeStyle;curved=1;rounded=0;orthogonalLoop=1;jettySize=auto;html=1;exitX=1;exitY=0.25;exitDx=0;exitDy=0;endArrow=none;endFill=0;" edge="1" parent="1" source="ZwdzB-IZGjin4EgNwJ6O-1" target="ZwdzB-IZGjin4EgNwJ6O-50">
          <mxGeometry relative="1" as="geometry" />
        </mxCell>
        <mxCell id="ZwdzB-IZGjin4EgNwJ6O-1" value="&lt;font size=&quot;3&quot;&gt;Aeropuerto&lt;/font&gt;" style="rounded=0;whiteSpace=wrap;html=1;" vertex="1" parent="1">
          <mxGeometry x="320" y="487" width="120" height="60" as="geometry" />
        </mxCell>
        <mxCell id="ZwdzB-IZGjin4EgNwJ6O-2" value="&lt;font style=&quot;font-size: 18px;&quot;&gt;Avion&lt;/font&gt;" style="rounded=0;whiteSpace=wrap;html=1;" vertex="1" parent="1">
          <mxGeometry x="-210" y="735" width="120" height="60" as="geometry" />
        </mxCell>
        <mxCell id="ZwdzB-IZGjin4EgNwJ6O-12" value="" style="edgeStyle=orthogonalEdgeStyle;rounded=0;orthogonalLoop=1;jettySize=auto;html=1;endArrow=none;endFill=0;" edge="1" parent="1" source="ZwdzB-IZGjin4EgNwJ6O-3" target="ZwdzB-IZGjin4EgNwJ6O-9">
          <mxGeometry relative="1" as="geometry" />
        </mxCell>
        <mxCell id="ZwdzB-IZGjin4EgNwJ6O-27" style="edgeStyle=orthogonalEdgeStyle;rounded=0;orthogonalLoop=1;jettySize=auto;html=1;exitX=1;exitY=0.5;exitDx=0;exitDy=0;endArrow=none;endFill=0;" edge="1" parent="1" source="ZwdzB-IZGjin4EgNwJ6O-3" target="ZwdzB-IZGjin4EgNwJ6O-16">
          <mxGeometry relative="1" as="geometry" />
        </mxCell>
        <mxCell id="ZwdzB-IZGjin4EgNwJ6O-3" value="&lt;font size=&quot;3&quot;&gt;ProgramaVuelo&lt;/font&gt;" style="rounded=0;whiteSpace=wrap;html=1;" vertex="1" parent="1">
          <mxGeometry x="320" y="825" width="120" height="60" as="geometry" />
        </mxCell>
        <mxCell id="ZwdzB-IZGjin4EgNwJ6O-4" value="&lt;font size=&quot;3&quot;&gt;EscalaTecnica&lt;/font&gt;" style="rounded=0;whiteSpace=wrap;html=1;" vertex="1" parent="1">
          <mxGeometry x="838" y="825" width="120" height="60" as="geometry" />
        </mxCell>
        <mxCell id="ZwdzB-IZGjin4EgNwJ6O-5" value="&lt;font size=&quot;3&quot;&gt;ModeloAvion&lt;/font&gt;" style="rounded=0;whiteSpace=wrap;html=1;" vertex="1" parent="1">
          <mxGeometry x="-210" y="1129" width="120" height="60" as="geometry" />
        </mxCell>
        <mxCell id="ZwdzB-IZGjin4EgNwJ6O-35" style="edgeStyle=orthogonalEdgeStyle;rounded=0;orthogonalLoop=1;jettySize=auto;html=1;endArrow=none;endFill=0;" edge="1" parent="1" source="ZwdzB-IZGjin4EgNwJ6O-8" target="ZwdzB-IZGjin4EgNwJ6O-21">
          <mxGeometry relative="1" as="geometry" />
        </mxCell>
        <mxCell id="ZwdzB-IZGjin4EgNwJ6O-8" value="&lt;font size=&quot;3&quot;&gt;Vuelo&lt;/font&gt;" style="rounded=0;whiteSpace=wrap;html=1;" vertex="1" parent="1">
          <mxGeometry x="320" y="1128" width="120" height="60" as="geometry" />
        </mxCell>
        <mxCell id="ZwdzB-IZGjin4EgNwJ6O-9" value="&lt;font size=&quot;3&quot;&gt;Asigna&lt;/font&gt;" style="rhombus;whiteSpace=wrap;html=1;" vertex="1" parent="1">
          <mxGeometry x="317" y="645" width="126" height="80" as="geometry" />
        </mxCell>
        <mxCell id="ZwdzB-IZGjin4EgNwJ6O-30" style="edgeStyle=orthogonalEdgeStyle;rounded=0;orthogonalLoop=1;jettySize=auto;html=1;exitX=0.5;exitY=0;exitDx=0;exitDy=0;endArrow=none;endFill=0;" edge="1" parent="1" source="ZwdzB-IZGjin4EgNwJ6O-13" target="ZwdzB-IZGjin4EgNwJ6O-3">
          <mxGeometry relative="1" as="geometry" />
        </mxCell>
        <mxCell id="ZwdzB-IZGjin4EgNwJ6O-31" style="edgeStyle=orthogonalEdgeStyle;rounded=0;orthogonalLoop=1;jettySize=auto;html=1;exitX=0.5;exitY=1;exitDx=0;exitDy=0;endArrow=none;endFill=0;" edge="1" parent="1" source="ZwdzB-IZGjin4EgNwJ6O-13" target="ZwdzB-IZGjin4EgNwJ6O-8">
          <mxGeometry relative="1" as="geometry" />
        </mxCell>
        <mxCell id="ZwdzB-IZGjin4EgNwJ6O-13" value="&lt;font size=&quot;3&quot;&gt;Realiza&lt;/font&gt;" style="rhombus;whiteSpace=wrap;html=1;" vertex="1" parent="1">
          <mxGeometry x="317" y="968" width="126" height="80" as="geometry" />
        </mxCell>
        <mxCell id="ZwdzB-IZGjin4EgNwJ6O-28" style="edgeStyle=orthogonalEdgeStyle;rounded=0;orthogonalLoop=1;jettySize=auto;html=1;exitX=1;exitY=0.5;exitDx=0;exitDy=0;endArrow=none;endFill=0;" edge="1" parent="1" source="ZwdzB-IZGjin4EgNwJ6O-16" target="ZwdzB-IZGjin4EgNwJ6O-4">
          <mxGeometry relative="1" as="geometry" />
        </mxCell>
        <mxCell id="ZwdzB-IZGjin4EgNwJ6O-16" value="&lt;font size=&quot;3&quot;&gt;Incorpora&lt;/font&gt;" style="rhombus;whiteSpace=wrap;html=1;" vertex="1" parent="1">
          <mxGeometry x="581" y="815" width="126" height="80" as="geometry" />
        </mxCell>
        <mxCell id="ZwdzB-IZGjin4EgNwJ6O-41" style="edgeStyle=orthogonalEdgeStyle;rounded=0;orthogonalLoop=1;jettySize=auto;html=1;exitX=0.5;exitY=0;exitDx=0;exitDy=0;endArrow=none;endFill=0;" edge="1" parent="1" source="ZwdzB-IZGjin4EgNwJ6O-19" target="ZwdzB-IZGjin4EgNwJ6O-2">
          <mxGeometry relative="1" as="geometry" />
        </mxCell>
        <mxCell id="ZwdzB-IZGjin4EgNwJ6O-43" style="edgeStyle=orthogonalEdgeStyle;rounded=0;orthogonalLoop=1;jettySize=auto;html=1;exitX=0.5;exitY=1;exitDx=0;exitDy=0;endArrow=none;endFill=0;" edge="1" parent="1" source="ZwdzB-IZGjin4EgNwJ6O-19" target="ZwdzB-IZGjin4EgNwJ6O-5">
          <mxGeometry relative="1" as="geometry" />
        </mxCell>
        <mxCell id="ZwdzB-IZGjin4EgNwJ6O-19" value="&lt;font size=&quot;3&quot;&gt;Pertenece&lt;/font&gt;" style="rhombus;whiteSpace=wrap;html=1;" vertex="1" parent="1">
          <mxGeometry x="-213" y="926" width="126" height="80" as="geometry" />
        </mxCell>
        <mxCell id="ZwdzB-IZGjin4EgNwJ6O-20" style="edgeStyle=orthogonalEdgeStyle;rounded=0;orthogonalLoop=1;jettySize=auto;html=1;exitX=0.5;exitY=1;exitDx=0;exitDy=0;" edge="1" parent="1" source="ZwdzB-IZGjin4EgNwJ6O-2" target="ZwdzB-IZGjin4EgNwJ6O-2">
          <mxGeometry relative="1" as="geometry" />
        </mxCell>
        <mxCell id="ZwdzB-IZGjin4EgNwJ6O-36" style="edgeStyle=orthogonalEdgeStyle;rounded=0;orthogonalLoop=1;jettySize=auto;html=1;endArrow=none;endFill=0;" edge="1" parent="1" source="ZwdzB-IZGjin4EgNwJ6O-21" target="ZwdzB-IZGjin4EgNwJ6O-5">
          <mxGeometry relative="1" as="geometry" />
        </mxCell>
        <mxCell id="ZwdzB-IZGjin4EgNwJ6O-21" value="&lt;font size=&quot;3&quot;&gt;Asigna&lt;/font&gt;" style="rhombus;whiteSpace=wrap;html=1;" vertex="1" parent="1">
          <mxGeometry x="70" y="1118" width="126" height="80" as="geometry" />
        </mxCell>
        <mxCell id="ZwdzB-IZGjin4EgNwJ6O-22" value="&lt;font style=&quot;font-size: 18px;&quot;&gt;1:M&lt;/font&gt;" style="text;html=1;align=center;verticalAlign=middle;resizable=0;points=[];autosize=1;strokeColor=none;fillColor=none;" vertex="1" parent="1">
          <mxGeometry x="323" y="558" width="48" height="34" as="geometry" />
        </mxCell>
        <mxCell id="ZwdzB-IZGjin4EgNwJ6O-23" value="&lt;font style=&quot;font-size: 18px;&quot;&gt;0:M&lt;/font&gt;" style="text;html=1;align=center;verticalAlign=middle;resizable=0;points=[];autosize=1;strokeColor=none;fillColor=none;" vertex="1" parent="1">
          <mxGeometry x="331" y="791" width="48" height="34" as="geometry" />
        </mxCell>
        <mxCell id="ZwdzB-IZGjin4EgNwJ6O-24" value="&lt;font style=&quot;font-size: 18px;&quot;&gt;M:N&lt;/font&gt;" style="text;html=1;align=center;verticalAlign=middle;resizable=0;points=[];autosize=1;strokeColor=none;fillColor=none;" vertex="1" parent="1">
          <mxGeometry x="265" y="668" width="51" height="34" as="geometry" />
        </mxCell>
        <mxCell id="ZwdzB-IZGjin4EgNwJ6O-25" value="&lt;font style=&quot;font-size: 18px;&quot;&gt;1:1&lt;/font&gt;" style="text;html=1;align=center;verticalAlign=middle;resizable=0;points=[];autosize=1;strokeColor=none;fillColor=none;" vertex="1" parent="1">
          <mxGeometry x="440" y="825" width="43" height="34" as="geometry" />
        </mxCell>
        <mxCell id="ZwdzB-IZGjin4EgNwJ6O-26" value="&lt;font style=&quot;font-size: 18px;&quot;&gt;0:M&lt;/font&gt;" style="text;html=1;align=center;verticalAlign=middle;resizable=0;points=[];autosize=1;strokeColor=none;fillColor=none;" vertex="1" parent="1">
          <mxGeometry x="790" y="819" width="48" height="34" as="geometry" />
        </mxCell>
        <mxCell id="ZwdzB-IZGjin4EgNwJ6O-29" value="&lt;font style=&quot;font-size: 18px;&quot;&gt;1:M&lt;/font&gt;" style="text;html=1;align=center;verticalAlign=middle;resizable=0;points=[];autosize=1;strokeColor=none;fillColor=none;" vertex="1" parent="1">
          <mxGeometry x="620" y="778" width="48" height="34" as="geometry" />
        </mxCell>
        <mxCell id="ZwdzB-IZGjin4EgNwJ6O-32" value="&lt;font style=&quot;font-size: 18px;&quot;&gt;1:1&lt;/font&gt;" style="text;html=1;align=center;verticalAlign=middle;resizable=0;points=[];autosize=1;strokeColor=none;fillColor=none;" vertex="1" parent="1">
          <mxGeometry x="374" y="879" width="43" height="34" as="geometry" />
        </mxCell>
        <mxCell id="ZwdzB-IZGjin4EgNwJ6O-33" value="&lt;font style=&quot;font-size: 18px;&quot;&gt;0:M&lt;/font&gt;" style="text;html=1;align=center;verticalAlign=middle;resizable=0;points=[];autosize=1;strokeColor=none;fillColor=none;" vertex="1" parent="1">
          <mxGeometry x="383" y="1095" width="48" height="34" as="geometry" />
        </mxCell>
        <mxCell id="ZwdzB-IZGjin4EgNwJ6O-34" value="&lt;font style=&quot;font-size: 18px;&quot;&gt;1:M&lt;/font&gt;" style="text;html=1;align=center;verticalAlign=middle;resizable=0;points=[];autosize=1;strokeColor=none;fillColor=none;" vertex="1" parent="1">
          <mxGeometry x="443" y="979" width="48" height="34" as="geometry" />
        </mxCell>
        <mxCell id="ZwdzB-IZGjin4EgNwJ6O-37" value="&lt;font style=&quot;font-size: 18px;&quot;&gt;0:M&lt;/font&gt;" style="text;html=1;align=center;verticalAlign=middle;resizable=0;points=[];autosize=1;strokeColor=none;fillColor=none;" vertex="1" parent="1">
          <mxGeometry x="269" y="1125" width="48" height="34" as="geometry" />
        </mxCell>
        <mxCell id="ZwdzB-IZGjin4EgNwJ6O-40" value="&lt;font style=&quot;font-size: 18px;&quot;&gt;1:1&lt;/font&gt;" style="text;html=1;align=center;verticalAlign=middle;resizable=0;points=[];autosize=1;strokeColor=none;fillColor=none;" vertex="1" parent="1">
          <mxGeometry x="-89" y="1125" width="43" height="34" as="geometry" />
        </mxCell>
        <mxCell id="ZwdzB-IZGjin4EgNwJ6O-42" value="&lt;font style=&quot;font-size: 18px;&quot;&gt;1:M&lt;/font&gt;" style="text;html=1;align=center;verticalAlign=middle;resizable=0;points=[];autosize=1;strokeColor=none;fillColor=none;" vertex="1" parent="1">
          <mxGeometry x="104" y="1084" width="48" height="34" as="geometry" />
        </mxCell>
        <mxCell id="ZwdzB-IZGjin4EgNwJ6O-44" value="&lt;font style=&quot;font-size: 18px;&quot;&gt;1:1&lt;/font&gt;" style="text;html=1;align=center;verticalAlign=middle;resizable=0;points=[];autosize=1;strokeColor=none;fillColor=none;" vertex="1" parent="1">
          <mxGeometry x="-152" y="795" width="43" height="34" as="geometry" />
        </mxCell>
        <mxCell id="ZwdzB-IZGjin4EgNwJ6O-45" value="&lt;font style=&quot;font-size: 18px;&quot;&gt;1:1&lt;/font&gt;" style="text;html=1;align=center;verticalAlign=middle;resizable=0;points=[];autosize=1;strokeColor=none;fillColor=none;" vertex="1" parent="1">
          <mxGeometry x="-152" y="1094" width="43" height="34" as="geometry" />
        </mxCell>
        <mxCell id="ZwdzB-IZGjin4EgNwJ6O-46" value="&lt;font style=&quot;font-size: 18px;&quot;&gt;1:1&lt;/font&gt;" style="text;html=1;align=center;verticalAlign=middle;resizable=0;points=[];autosize=1;strokeColor=none;fillColor=none;" vertex="1" parent="1">
          <mxGeometry x="-79" y="949" width="43" height="34" as="geometry" />
        </mxCell>
        <mxCell id="ZwdzB-IZGjin4EgNwJ6O-47" value="Código" style="ellipse;whiteSpace=wrap;html=1;align=center;fontStyle=4;" vertex="1" parent="1">
          <mxGeometry x="135" y="477" width="100" height="40" as="geometry" />
        </mxCell>
        <mxCell id="ZwdzB-IZGjin4EgNwJ6O-48" value="Nombre" style="ellipse;whiteSpace=wrap;html=1;align=center;" vertex="1" parent="1">
          <mxGeometry x="240.5" y="389" width="100" height="40" as="geometry" />
        </mxCell>
        <mxCell id="ZwdzB-IZGjin4EgNwJ6O-49" value="Ciudad" style="ellipse;whiteSpace=wrap;html=1;align=center;" vertex="1" parent="1">
          <mxGeometry x="368" y="380" width="100" height="40" as="geometry" />
        </mxCell>
        <mxCell id="ZwdzB-IZGjin4EgNwJ6O-50" value="Pais" style="ellipse;whiteSpace=wrap;html=1;align=center;" vertex="1" parent="1">
          <mxGeometry x="514" y="461" width="100" height="40" as="geometry" />
        </mxCell>
        <mxCell id="ZwdzB-IZGjin4EgNwJ6O-52" style="edgeStyle=orthogonalEdgeStyle;curved=1;rounded=0;orthogonalLoop=1;jettySize=auto;html=1;exitX=0.25;exitY=0;exitDx=0;exitDy=0;endArrow=none;endFill=0;" edge="1" parent="1" source="ZwdzB-IZGjin4EgNwJ6O-1" target="ZwdzB-IZGjin4EgNwJ6O-48">
          <mxGeometry relative="1" as="geometry">
            <mxPoint x="315" y="451" as="targetPoint" />
          </mxGeometry>
        </mxCell>
        <mxCell id="ZwdzB-IZGjin4EgNwJ6O-64" style="edgeStyle=orthogonalEdgeStyle;curved=1;rounded=0;orthogonalLoop=1;jettySize=auto;html=1;exitX=1;exitY=1;exitDx=0;exitDy=0;entryX=0;entryY=0.5;entryDx=0;entryDy=0;endArrow=none;endFill=0;" edge="1" parent="1" source="ZwdzB-IZGjin4EgNwJ6O-58" target="ZwdzB-IZGjin4EgNwJ6O-3">
          <mxGeometry relative="1" as="geometry" />
        </mxCell>
        <mxCell id="ZwdzB-IZGjin4EgNwJ6O-58" value="Numero" style="ellipse;whiteSpace=wrap;html=1;align=center;fontStyle=4;" vertex="1" parent="1">
          <mxGeometry x="135" y="778" width="100" height="40" as="geometry" />
        </mxCell>
        <mxCell id="ZwdzB-IZGjin4EgNwJ6O-65" style="edgeStyle=orthogonalEdgeStyle;curved=1;rounded=0;orthogonalLoop=1;jettySize=auto;html=1;exitX=1;exitY=0.5;exitDx=0;exitDy=0;entryX=0;entryY=0.75;entryDx=0;entryDy=0;endArrow=none;endFill=0;" edge="1" parent="1" source="ZwdzB-IZGjin4EgNwJ6O-60" target="ZwdzB-IZGjin4EgNwJ6O-3">
          <mxGeometry relative="1" as="geometry" />
        </mxCell>
        <mxCell id="ZwdzB-IZGjin4EgNwJ6O-60" value="Línea Aerea" style="ellipse;whiteSpace=wrap;html=1;align=center;" vertex="1" parent="1">
          <mxGeometry x="90" y="855" width="100" height="40" as="geometry" />
        </mxCell>
        <mxCell id="ZwdzB-IZGjin4EgNwJ6O-63" value="Fechas" style="ellipse;shape=doubleEllipse;margin=3;whiteSpace=wrap;html=1;align=center;" vertex="1" parent="1">
          <mxGeometry x="169" y="921" width="100" height="40" as="geometry" />
        </mxCell>
        <mxCell id="ZwdzB-IZGjin4EgNwJ6O-66" style="edgeStyle=orthogonalEdgeStyle;curved=1;rounded=0;orthogonalLoop=1;jettySize=auto;html=1;exitX=1;exitY=0.5;exitDx=0;exitDy=0;entryX=0.195;entryY=1.042;entryDx=0;entryDy=0;entryPerimeter=0;endArrow=none;endFill=0;" edge="1" parent="1" source="ZwdzB-IZGjin4EgNwJ6O-63" target="ZwdzB-IZGjin4EgNwJ6O-3">
          <mxGeometry relative="1" as="geometry" />
        </mxCell>
        <mxCell id="ZwdzB-IZGjin4EgNwJ6O-73" style="edgeStyle=orthogonalEdgeStyle;curved=1;rounded=0;orthogonalLoop=1;jettySize=auto;html=1;exitX=1;exitY=1;exitDx=0;exitDy=0;entryX=0;entryY=0.25;entryDx=0;entryDy=0;endArrow=none;endFill=0;" edge="1" parent="1" source="ZwdzB-IZGjin4EgNwJ6O-67" target="ZwdzB-IZGjin4EgNwJ6O-5">
          <mxGeometry relative="1" as="geometry" />
        </mxCell>
        <mxCell id="ZwdzB-IZGjin4EgNwJ6O-67" value="Id" style="ellipse;whiteSpace=wrap;html=1;align=center;fontStyle=4;" vertex="1" parent="1">
          <mxGeometry x="-363" y="1048" width="100" height="40" as="geometry" />
        </mxCell>
        <mxCell id="ZwdzB-IZGjin4EgNwJ6O-74" style="edgeStyle=orthogonalEdgeStyle;curved=1;rounded=0;orthogonalLoop=1;jettySize=auto;html=1;exitX=1;exitY=0.5;exitDx=0;exitDy=0;endArrow=none;endFill=0;" edge="1" parent="1" source="ZwdzB-IZGjin4EgNwJ6O-68" target="ZwdzB-IZGjin4EgNwJ6O-5">
          <mxGeometry relative="1" as="geometry" />
        </mxCell>
        <mxCell id="ZwdzB-IZGjin4EgNwJ6O-68" value="Capacidad" style="ellipse;whiteSpace=wrap;html=1;align=center;" vertex="1" parent="1">
          <mxGeometry x="-408" y="1189" width="100" height="40" as="geometry" />
        </mxCell>
        <mxCell id="ZwdzB-IZGjin4EgNwJ6O-76" style="edgeStyle=orthogonalEdgeStyle;curved=1;rounded=0;orthogonalLoop=1;jettySize=auto;html=1;exitX=0.5;exitY=0;exitDx=0;exitDy=0;entryX=0.25;entryY=1;entryDx=0;entryDy=0;endArrow=none;endFill=0;" edge="1" parent="1" source="ZwdzB-IZGjin4EgNwJ6O-69" target="ZwdzB-IZGjin4EgNwJ6O-8">
          <mxGeometry relative="1" as="geometry" />
        </mxCell>
        <mxCell id="ZwdzB-IZGjin4EgNwJ6O-69" value="Fecha" style="ellipse;whiteSpace=wrap;html=1;align=center;" vertex="1" parent="1">
          <mxGeometry x="217" y="1256" width="100" height="40" as="geometry" />
        </mxCell>
        <mxCell id="ZwdzB-IZGjin4EgNwJ6O-77" style="edgeStyle=orthogonalEdgeStyle;curved=1;rounded=0;orthogonalLoop=1;jettySize=auto;html=1;exitX=0.5;exitY=0;exitDx=0;exitDy=0;entryX=0.75;entryY=1;entryDx=0;entryDy=0;endArrow=none;endFill=0;" edge="1" parent="1" source="ZwdzB-IZGjin4EgNwJ6O-70" target="ZwdzB-IZGjin4EgNwJ6O-8">
          <mxGeometry relative="1" as="geometry" />
        </mxCell>
        <mxCell id="ZwdzB-IZGjin4EgNwJ6O-70" value="Plazas" style="ellipse;whiteSpace=wrap;html=1;align=center;" vertex="1" parent="1">
          <mxGeometry x="391" y="1266" width="100" height="40" as="geometry" />
        </mxCell>
      </root>
    </mxGraphModel>
  </diagram>
</mxfile>
